<?xml version="1.0" standalone="no"?><!DOCTYPE svg PUBLIC "-//W3C//DTD SVG 1.1//EN" "http://www.w3.org/Graphics/SVG/1.1/DTD/svg11.dtd"><svg t="1579102424563" class="icon" viewBox="0 0 1024 1024" version="1.1" xmlns="http://www.w3.org/2000/svg" p-id="3090" xmlns:xlink="http://www.w3.org/1999/xlink" width="200" height="200"><defs><style type="text/css"></style></defs><path d="M853.238 256.07h-170.604v213.28h255.922z" fill="#4FC2E9" p-id="3091"></path><path d="M938.556 436.016l-85.318-179.946h-170.604l0.062-85.288H170.916L0.156 341.388V810.604h85.442l42.596-42.238 895.368-0.438v-170.636h0.282v-124.604l-85.288-36.672zM128.178 725.694h-17.556l-12.45 12.372-30.116 29.866H42.814V359.07l145.752-145.642h451.424l-0.032 42.612-0.032 42.706H826.244l73.76 155.546 6.874 14.558 1.188 0.5h-232.18v256.094l-547.708 0.25z" fill="#E6E9ED" p-id="3092"></path><path d="M853.364 170.784h-200.22v42.644h200.218c11.778 0 21.338-9.56 21.338-21.338s-9.56-21.306-21.336-21.306z" fill="#E9573F" p-id="3093"></path><path d="M682.634 170.784H170.916L0.156 341.388V810.606h85.442l42.596-42.238 554.44-0.314z" fill="#FC6E51" p-id="3094"></path><path d="M516.014 379.908a21.012 21.012 0 0 0-4.358-6.31 21.288 21.288 0 0 0-30.148 0c-6.388 6.374-7.872 15.806-4.452 23.618 19.806 39.894 13.106 89.722-20.072 122.9-26.164 26.132-62.622 35.818-96.44 29.068 5.452-6.106 7.138-15.042 3.578-22.976-4.828-10.714-17.448-15.528-28.194-10.684l-38.91 17.462c-10.748 4.842-15.542 17.448-10.7 28.194l17.48 38.926c4.826 10.748 17.448 15.496 28.194 10.686 8.56-3.81 13.324-12.622 12.464-21.494 49.406 12.622 104.014-0.376 142.674-39.05 46.096-46.066 55.672-114.764 28.884-170.34zM289.084 356.632c26.164-26.148 62.622-35.8 96.424-29.052-5.436 6.092-7.124 15.026-3.562 22.96 4.828 10.748 17.448 15.528 28.194 10.716l38.894-17.496c10.748-4.81 15.542-17.462 10.716-28.178l-17.48-38.926c-4.826-10.748-17.462-15.528-28.194-10.716a21.368 21.368 0 0 0-12.48 21.494c-49.392-12.622-104 0.376-142.674 39.05-46.08 46.08-55.656 114.778-28.866 170.354a21.25 21.25 0 0 0 4.342 6.31c8.326 8.342 21.836 8.342 30.164 0 6.388-6.374 7.856-15.806 4.452-23.618-19.808-39.892-13.124-89.688 20.07-122.898z" fill="#F5F7FA" p-id="3095"></path><path d="M341.52 746.624c0 58.856-47.736 106.592-106.624 106.592s-106.64-47.736-106.64-106.592c0-58.92 47.752-106.656 106.64-106.656 58.89 0 106.624 47.738 106.624 106.656zM554.798 746.624c0 58.856-47.736 106.592-106.638 106.592-58.888 0-106.64-47.736-106.64-106.592 0-58.92 47.75-106.656 106.64-106.656 58.904 0 106.638 47.738 106.638 106.656zM938.556 746.624c0 58.856-47.768 106.592-106.654 106.592-58.888 0-106.656-47.736-106.656-106.592 0-58.92 47.768-106.656 106.656-106.656 58.888 0 106.654 47.738 106.654 106.656z" fill="#424953" p-id="3096"></path><path d="M256.218 746.624c0 11.746-9.544 21.304-21.322 21.304s-21.336-9.558-21.336-21.304c0-11.808 9.56-21.37 21.336-21.37s21.322 9.562 21.322 21.37zM853.208 746.624c0 11.746-9.528 21.304-21.304 21.304s-21.306-9.558-21.306-21.304c0-11.808 9.53-21.37 21.306-21.37s21.304 9.562 21.304 21.37zM469.482 746.624c0 11.746-9.544 21.304-21.322 21.304-11.778 0-21.322-9.558-21.322-21.304 0-11.808 9.544-21.37 21.322-21.37 11.778 0.002 21.322 9.562 21.322 21.37z" fill="#F5F7FA" p-id="3097"></path><path d="M0.156 810.606h85.442l42.596-42.238H0.156z" fill="#E9573F" p-id="3098"></path></svg>