<?xml version="1.0" standalone="no"?><!DOCTYPE svg PUBLIC "-//W3C//DTD SVG 1.1//EN" "http://www.w3.org/Graphics/SVG/1.1/DTD/svg11.dtd"><svg t="1579120723945" class="icon" viewBox="0 0 1024 1024" version="1.1" xmlns="http://www.w3.org/2000/svg" p-id="1300" xmlns:xlink="http://www.w3.org/1999/xlink" width="200" height="200"><defs><style type="text/css"></style></defs><path d="M364 584h308v16H364z" fill="#1afa29" p-id="1301"></path><path d="M364 616h308v16H364zM364 648h308v16H364zM364 680h308v16H364zM364 712h308v16H364zM364 744h308v16H364zM364 776h308v16H364zM364 808h308v16H364zM364 840h308v16H364zM364 872h308v16H364z" fill="#1afa29" p-id="1302"></path><path d="M688 887.2V568H348v319.2H144v-468l370-161.2 374 161.32v468z" fill="#1afa29" p-id="1303"></path><path d="M516 193.44l372 160.2v51.24L516 244l-372 161.68V354.44l372-161.08z" fill="#1afa29" p-id="1304"></path></svg>